<svg xmlns="http://www.w3.org/2000/svg" viewBox="0 0 24 24" fill="none">
  <path
    d="M3 7.5C3 6.67157 3.67157 6 4.5 6H9.08579C9.48361 6 9.86514 6.15804 10.1464 6.43934L11.5607 7.85355C11.8419 8.13485 12.2234 8.29289 12.6213 8.29289H19.5C20.3284 8.29289 21 8.96447 21 9.79289V10.5H3V7.5Z"
    fill="var(--ci-primary-color, #000000)" />
  <path
    d="M4.39223 11.5H19.6078C20.5899 11.5 21.3093 12.4257 21.0666 13.3774L19.791 18.3774C19.6211 19.043 19.0211 19.5 18.3341 19.5H5.66592C4.97888 19.5 4.37888 19.043 4.20898 18.3774L2.9334 13.3774C2.69065 12.4257 3.41005 11.5 4.39223 11.5Z"
    fill="var(--ci-primary-color, #000000)" />
  <path
    d="M12.75 13.25C12.75 12.8358 13.0858 12.5 13.5 12.5H17.5C17.9142 12.5 18.25 12.8358 18.25 13.25C18.25 13.6642 17.9142 14 17.5 14H15.3107L18.0303 16.7197C18.3232 17.0126 18.3232 17.4874 18.0303 17.7803C17.7374 18.0732 17.2626 18.0732 16.9697 17.7803L14.25 15.0607V17.25C14.25 17.6642 13.9142 18 13.5 18C13.0858 18 12.75 17.6642 12.75 17.25V13.25Z"
    fill="#FFFFFF" />
</svg>
